<svg width="184" height="184" viewBox="0 0 184 184" fill="none" xmlns="http://www.w3.org/2000/svg">
<path d="M182.5 81.3C182.1 77.9 181.6 74.6 180.8 71.3C180.6 70.5 180.4 69.6 180.2 68.8C179.5 66.2 178.7 63.6 177.9 61.1C177.9 61 177.9 61 177.8 60.9C176.6 57.5 175.2 54.3 173.7 51.1C171.9 47.5 169.9 44 167.7 40.7C165.4 37.2 162.8 33.8 160 30.7C156.7 27 153 23.5 149.1 20.3C144.4 16.5 139.4 13.2 134 10.4C122.3 4.19999 109 0.6 94.9 0H88.2C74.1 0.5 60.9 4.19999 49.1 10.4C43.7 13.2 38.7 16.5 34 20.3C30.1 23.5 26.5 26.9 23.1 30.7C20.3 33.8 17.7 37.2 15.4 40.7C13.2 44 11.2 47.5 9.4 51.1C7.8 54.3 6.5 57.5 5.3 60.9V61C4.1 64.5 3.1 67.9 2.3 71.4C1.6 74.7 1 78 0.6 81.4C0.2 84.7 0 88.1 0 91.6C0 91.7 0 91.7 0 91.8C0 95.3 0.2 98.8 0.6 102.2C1 105.7 1.6 109.2 2.4 112.6C3.2 116 4.2 119.4 5.4 122.6C6.6 125.9 8 129.2 9.5 132.3C11.3 135.9 13.3 139.4 15.6 142.7C18.1 146.4 20.8 149.8 23.7 153.1C27 156.7 30.5 160.1 34.3 163.1C39.3 167.1 44.7 170.6 50.5 173.5C62.8 179.7 76.7 183.2 91.5 183.2C106.2 183.2 120.2 179.7 132.5 173.5C138.3 170.6 143.7 167.1 148.7 163.1C152.5 160 156.1 156.7 159.3 153.1C162.2 149.8 165 146.4 167.4 142.7C169.6 139.4 171.6 135.9 173.4 132.3C175 129.1 176.4 125.9 177.6 122.5C178.8 119.2 179.8 115.9 180.6 112.5C181.4 109.1 182 105.7 182.4 102.1C182.8 98.7 183 95.2 183 91.7V91.6C183.1 88.1 182.9 84.7 182.5 81.3ZM34.4 134.2C33.6 134.6 32.5 133.3 32.9 132.5L36.4 126L41.9 116L47.6 105.6L53.3 95.2L56.6 89.1L58.9 84.8L64.4 74.8L70.1 64.4L75.4 54.6L81.1 44.2L84.6 37.8L87.9 31.8L90.1 27.9C91 26.1 93.5 26.1 94.4 27.8L97.8 34.1L103.3 44.1L109 54.5L114.3 64.3L120 74.7L125.5 84.7L126.7 86.8C127.3 88 126.9 89.4 125.7 90L115.2 95.1L93.7 105.5L92.3 106.2L72.3 115.9L51.6 125.9M132.8 126L112.1 116L104.4 112.3C103 111.6 103 109.6 104.4 108.9L111.2 105.7L129.2 97.1C130.4 96.5 131.8 97 132.4 98.1L136.5 105.7L142.2 116.1L147.7 126.1L150.1 130.4C151 132.1 149.2 134 147.5 133.2L132.8 126Z" fill="#F36A3D"/>
</svg>
